<?xml version="1.0" encoding="UTF-8"?>
<svg t="1761987830049"
  class="icon" viewBox="0 0 1024 1024" version="1.1" xmlns="http://www.w3.org/2000/svg" p-id="10642"
  xmlns:xlink="http://www.w3.org/1999/xlink" width="200" height="200">
  <path
    d="M515.56352 97.28A306.81088 306.81088 0 0 0 206.848 404.52608V435.2c0 113.09568-19.44064 192.96768-49.98656 245.51424a61.3888 61.3888 0 0 0-0.2816 61.44 61.44 61.44 0 0 0 53.18656 30.96576h606.9248a61.44 61.44 0 0 0 53.83168-90.89536l-0.90112-1.59232c-30.47424-52.4544-49.90464-132.33152-49.90464-245.43232v-27.25376c0-168.1664-133.03296-306.6112-299.07456-310.58432l-5.07904-0.08704z m-3.49184 61.44h3.072c134.3488 1.00864 243.13344 112.8448 243.13344 249.23136v27.25376c0 121.9328 21.46816 211.712 56.92416 274.03776l1.408 2.44736H209.92512C246.26176 649.18528 268.288 558.67904 268.288 435.2v-30.72a245.4016 245.4016 0 0 1 243.78368-245.76z"
    fill="#000000" p-id="10643"></path>
  <path
    d="M636.14464 711.68a30.72 30.72 0 0 1 30.69952 29.57312l0.02048 1.152v30.72c0 84.82816-68.76672 153.6-153.6 153.6-83.97824 0-152.2176-67.4048-153.57952-151.06048l-0.02048-2.53952v-30.72a30.72 30.72 0 0 1 61.41952-1.152l0.02048 1.152v30.72c0 50.8928 41.2672 92.16 92.16 92.16 50.33472 0 91.24352-40.35072 92.14464-90.4704l0.01536-1.6896v-30.72a30.72 30.72 0 0 1 30.72-30.72z"
    fill="#000000" p-id="10644"></path>
</svg>