<?xml version="1.0" encoding="UTF-8"?>
<svg t="1761984961413"
  class="icon" viewBox="0 0 1024 1024" version="1.1" xmlns="http://www.w3.org/2000/svg" p-id="6052"
  xmlns:xlink="http://www.w3.org/1999/xlink" width="200" height="200">
  <path d="M939.52 429.056c-2.048-11.776-10.752-20.992-22.528-24.064-41.984-9.728-76.8-35.84-98.304-73.728-21.504-37.376-26.112-81.408-13.824-123.392 3.584-11.264 0-24.064-9.216-31.744-41.984-36.864-89.6-65.024-141.312-83.456-3.072-1.024-6.144-1.536-9.728-1.536-8.192 0-15.872 3.584-21.504 9.728-29.184 31.744-68.608 49.664-111.104 49.664S430.08 133.12 400.384 100.864c-7.68-8.704-20.48-11.776-31.744-8.192-52.224 18.432-99.84 46.592-141.312 83.456-8.704 7.68-12.288 20.48-8.704 31.744 12.8 41.984 7.68 85.504-13.824 123.392-20.992 37.888-55.808 64-97.792 73.728-11.264 3.072-20.48 12.288-22.528 24.064-5.12 28.16-7.68 55.808-7.68 83.456s2.56 55.296 7.68 83.456c2.048 11.776 10.752 20.992 22.528 24.064 41.984 9.728 76.8 35.84 98.304 73.728 21.504 37.888 26.112 81.408 13.824 123.392-3.584 11.264 0 23.552 9.216 31.744 41.984 36.864 89.6 65.024 141.312 83.456 11.264 4.096 23.552 0.512 31.232-7.68 29.184-32.256 68.608-49.664 111.616-49.664 42.496 0 81.92 17.408 111.616 49.664 5.632 6.144 13.312 9.728 21.504 9.728 3.072 0 6.656-0.512 9.728-1.536 52.224-18.432 99.84-46.592 141.312-83.456 8.704-7.68 12.288-20.48 9.216-31.744-12.8-41.984-7.68-86.016 13.824-123.392 21.504-37.888 56.32-64 98.304-73.728 11.264-2.56 19.968-11.776 22.528-24.064 5.12-28.16 7.68-55.808 7.68-83.456-1.024-28.16-3.584-55.808-8.704-83.968z m-209.92 368.128c-26.112 20.992-54.784 37.376-85.504 50.176-36.352-33.28-83.456-51.2-132.608-51.2-48.64 0-95.744 17.92-132.608 51.2-30.72-12.8-59.392-29.696-85.504-50.176 9.728-49.152 2.048-99.328-22.528-142.848-24.576-43.52-63.488-75.776-110.08-91.648-2.56-16.896-3.584-33.792-3.584-50.176 0-16.384 1.024-33.28 3.584-50.176 46.592-15.872 85.504-48.128 110.08-91.648 24.576-43.52 32.256-93.696 22.528-142.848 26.112-20.992 54.784-37.376 85.504-50.176 36.864 33.28 83.456 51.2 132.608 51.2 49.152 0 95.744-17.92 132.608-51.2 30.72 12.8 59.392 29.696 85.504 50.176-9.728 49.152-2.048 99.84 22.528 142.848 24.576 43.52 63.488 75.776 110.08 91.648 2.56 16.896 3.584 33.792 3.584 50.688 0 15.872-1.024 32.768-3.584 50.176-46.592 15.872-85.504 48.128-110.08 91.648-24.064 42.496-32.256 93.184-22.528 142.336z"
    p-id="6053">
  </path>
  <path
    d="M512 692.224c-95.744 0-174.08-80.896-174.08-179.712S415.744 332.8 512 332.8c95.744 0 174.08 80.896 174.08 179.712s-77.824 179.712-174.08 179.712z m0-294.912c-61.44 0-111.616 51.712-111.616 115.2s50.176 115.2 111.616 115.2 111.616-51.712 111.616-115.2S573.44 397.312 512 397.312z"
    p-id="6054">
  </path>
</svg>