<?xml version="1.0" standalone="no"?><!DOCTYPE svg PUBLIC "-//W3C//DTD SVG 1.1//EN" "http://www.w3.org/Graphics/SVG/1.1/DTD/svg11.dtd"><svg t="1751890299756" class="icon" viewBox="0 0 1024 1024" version="1.1" xmlns="http://www.w3.org/2000/svg" p-id="6516" width="48" height="48" xmlns:xlink="http://www.w3.org/1999/xlink"><path d="M841.11 151.87H182.39c-37.09 0-67.27 30.18-67.27 67.27v494.42c0 37.09 30.18 67.27 67.27 67.27h306.94v46.19H320.05c-12.38 0-22.42 10.04-22.42 22.42s10.04 22.42 22.42 22.42h383.41c12.38 0 22.42-10.04 22.42-22.42s-10.04-22.42-22.42-22.42H534.18v-46.19h306.94c37.09 0 67.27-30.18 67.27-67.27V219.14c-0.01-37.09-30.18-67.27-67.28-67.27zM533.07 409.52c-45.4 40.92-116.86 104.97-146.13 131.18l-145.9-131.57c-28.72-29.59-35.33-64.61-18.41-98.68 14.32-28.8 42.97-47.45 73.34-47.45 21.64-0.08 55.48 17.39 79.64 33.92 1.26 0.86 2.05 1.34 2.2 1.42l9.6 5.43 9.6-5.43 1.41-0.87c32.9-20.62 65.08-34.47 80.35-34.47h0.24c30.61 0 58.63 18.18 73.1 47.45 19.83 40.05 0.79 75.86-19.04 99.07z" fill="#1296db" p-id="6517"></path><path d="M401.19 334.38h-28.45v53.25h-53.25v28.44h53.25v53.25h28.45v-53.25h53.25v-28.44h-53.25z" fill="#1296db" p-id="6518"></path></svg>