<svg t="1759653238135" class="icon" viewBox="0 0 1024 1024" version="1.1" xmlns="http://www.w3.org/2000/svg" p-id="6229"
  width="48" height="48">
  <path d="
      M433.1 657.7
      c12.7 17.7 39 17.7 51.7 0
      l210.6-292
      c3.8-5.3 0-12.7-6.5-12.7
      H642
      c-10.2 0-19.9 4.9-25.9 13.3
      L459 584.3
      l-71.2-98.8
      c-6-8.3-15.6-13.3-25.9-13.3
      H315
      c-6.5 0-10.3 7.4-6.5 12.7
      l124.6 172.8
      z
    " p-id="6230"></path>

  <path d="
      M880 112
      H144
      c-17.7 0-32 14.3-32 32
      v736
      c0 17.7 14.3 32 32 32
      h736
      c17.7 0 32-14.3 32-32
      V144
      c0-17.7-14.3-32-32-32
      z
      
      m-40 728
      H184
      V184
      h656
      v656
      z
    " p-id="6231"></path>
</svg>