<svg t="1759652914486" class="icon" viewBox="0 0 1024 1024" version="1.1" xmlns="http://www.w3.org/2000/svg" p-id="13589" width="48" height="48">
  <path
    d="
      M464 144
      H160
      a16 16 0 0 0-16 16
      v304
      c0 8.832 7.168 16 16 16
      h304
      a16 16 0 0 0 16-16
      V160
      a16 16 0 0 0-16-16
      z
      
      m-52.032 268.032
      H212.032
      V212.032
      h200.064
      v199.936
      z
      
      M864 144
      H560
      a16 16 0 0 0-16 16
      v304
      c0 8.832 7.232 16 16 16
      h304
      a16 16 0 0 0 16-16
      V160
      a16 16 0 0 0-16-16
      z
      
      m-52.032 268.032
      H612.032
      V212.032
      h199.936
      v199.936
      z
      
      M464 544
      H160
      a16 16 0 0 0-16 16
      v304
      c0 8.768 7.168 16 16 16
      h304
      a16 16 0 0 0 16-16
      V560
      a16 16 0 0 0-16-16
      z
      
      m-52.032 268.032
      H212.032
      V611.968
      h200.064
      v200.064
      z
      
      M864 544
      H560
      a16 16 0 0 0-16 16
      v304
      c0 8.768 7.232 16 16 16
      h304
      a16 16 0 0 0 16-16
      V560
      a16 16 0 0 0-16-16
      z
      
      m-52.032 268.032
      H612.032
      V611.968
      h199.936
      v200.064
      z
    "
    p-id="13590"
  ></path>
</svg>