<svg t="1759654345116" class="icon" viewBox="0 0 1024 1024" version="1.1" xmlns="http://www.w3.org/2000/svg" p-id="1012" width="48" height="48">

  <path
    d="
      M601.429333 939.861333
      H109.738667
      A70.314667 70.314667 0 0 1 39.424 870.4
      V154.453333
      a70.314667 70.314667 0 0 1 70.314667-70.314666
      h446.976
      a70.314667 70.314667 0 0 1 70.314666 70.314666
      v759.808
      a25.6 25.6 0 0 1-25.6 25.6
      z
      
      M109.738667 135.338667
      a19.114667 19.114667 0 0 0-19.114667 19.114666
      V870.4
      a19.114667 19.114667 0 0 0 19.114667 19.114667
      h466.090666
      v-733.866667
      A19.114667 19.114667 0 0 0 556.714667 136.533333
      z
    "
    fill="#333333"
    p-id="1014"
  ></path>

  <path
    d="
      M444.928 939.861333
      a25.6 25.6 0 0 1-25.6-25.6
      V713.216
      a41.472 41.472 0 0 0-41.472-41.472
      H288.426667
      a41.472 41.472 0 0 0-41.472 41.472
      v201.045333
      a25.6 25.6 0 1 1-51.2 0
      V713.216
      a92.842667 92.842667 0 0 1 92.672-92.672
      h89.429333
      a92.672 92.672 0 0 1 92.672 92.672
      v201.045333
      a25.6 25.6 0 0 1-25.6 25.6
      z
      
      M914.261333 939.861333
      H601.429333
      a25.6 25.6 0 0 1-25.6-25.6
      V512
      a25.6 25.6 0 0 1 25.6-25.6
      h312.832
      a70.314667 70.314667 0 0 1 70.314667 70.314667
      V870.4
      a70.144 70.144 0 0 1-70.314667 69.461333
      z
      
      m-287.232-51.2
      h287.232
      A19.114667 19.114667 0 0 0 933.376 870.4
      V556.714667
      a19.114667 19.114667 0 0 0-19.114667-19.114667
      H627.029333
      z
      
      M422.570667 403.456
      H243.712
      a25.6 25.6 0 0 1 0-51.2
      h178.858667
      a25.6 25.6 0 1 1 0 51.2
      z
    "
    fill="#333333"
    p-id="1015"
  ></path>

  <path
    d="
      M333.141333 492.885333
      a25.6 25.6 0 0 1-25.6-25.6
      V288.426667
      a25.6 25.6 0 0 1 51.2 0
      v178.858666
      a25.6 25.6 0 0 1-25.6 25.6
      z
      
      M534.357333 939.861333
      H132.096
      a25.6 25.6 0 0 1 0-51.2
      h402.261333
      a25.6 25.6 0 1 1 0 51.2
      z
    "
    fill="#333333"
    p-id="1016"
  ></path>
</svg>