<svg t="1759653618971" class="icon" viewBox="0 0 1024 1024" version="1.1" xmlns="http://www.w3.org/2000/svg" p-id="1171"
  width="48" height="48">
  <path
    d="M381.4 648.8h-60.9c-60.5 0-117.2-26.8-159.5-75.5-41.3-47.5-64.1-110.4-64.1-177.1V139c0-22.1 17.4-40.1 38.8-40.1h106c16.6 0 30 13.4 30 30s-13.4 30-30 30h-84.8v237.3c0 106.2 73.4 192.7 163.6 192.7h60.9c90.2 0 163.6-86.4 163.6-192.7V158.9h-72.4c-16.6 0-30-13.4-30-30s13.4-30 30-30h93.6c21.4 0 38.8 18 38.8 40.1v257.1c0 66.7-22.8 129.6-64.1 177.1-42.3 48.8-99 75.6-159.5 75.6z m184.8-489.9z"
    fill="#666666" p-id="1172"></path>
  <path
    d="M583.7 925.2c-36.1 0-71.1-8.5-103.9-25.3-31.3-16-59.3-38.7-83.2-67.7-48.3-58.3-74.8-135.5-74.8-217.3h60c0 138 90.6 250.3 202 250.3s202-112.3 202-250.3h60c0 81.8-26.6 159-74.8 217.3-23.9 28.9-51.9 51.7-83.2 67.7-33 16.8-68 25.3-104.1 25.3z"
    fill="#666666" p-id="1173"></path>
  <path
    d="M812.3 651.3c-64.6 0-117.1-52.5-117.1-117.1s52.5-117.1 117.1-117.1 117.1 52.5 117.1 117.1-52.6 117.1-117.1 117.1z m0-174.2c-31.5 0-57.1 25.6-57.1 57.1s25.6 57.1 57.1 57.1 57.1-25.6 57.1-57.1-25.6-57.1-57.1-57.1z"
    fill="#666666" p-id="1174"></path>

</svg>