<svg t="1759655282496" class="icon" viewBox="0 0 1024 1024" version="1.1" xmlns="http://www.w3.org/2000/svg"
  p-id="11559" width="48" height="48">
  <path d="
      M887.296 170.7008
      h-154.6752
      V115.712
      h-61.44
      v54.9888
      H356.4032
      V111.0016
      h-61.44
      v59.6992
      H145.1008
      V880.64
      h742.4
      z
      
      m-592.3328 61.44
      V286.72
      h61.44
      V232.1408
      h314.7776
      v49.9712
      h61.44
      v-49.9712
      h93.2352
      v145.8176
      h-619.52
      V232.1408
      z
      
      M206.5408 819.2
      V439.3984
      h619.52
      V819.2
      z
    " fill="#231F20" p-id="11560"></path>

  <path d="
      M514.816 518.2464
      a40.1408 40.1408 0 1 0 40.1408 40.1408
      a40.1408 40.1408 0 0 0-40.1408-40.1408
      z
      
      M683.3664 518.2464
      a40.1408 40.1408 0 1 0 40.1408 40.1408
      a40.1408 40.1408 0 0 0-40.1408-40.1408
      z
      
      M346.7776 652.5952
      a40.1408 40.1408 0 1 0 40.0896 40.1408
      a40.1408 40.1408 0 0 0-40.0896-40.1408
      z
      
      M514.816 652.5952
      a40.1408 40.1408 0 1 0 40.1408 40.1408
      a40.1408 40.1408 0 0 0-40.1408-40.1408
      z
      
      M683.3664 652.5952
      a40.1408 40.1408 0 1 0 40.1408 40.1408
      a40.1408 40.1408 0 0 0-40.1408-40.1408
      z
    " fill="#231F20" p-id="11561"></path>
</svg>