<svg t="1759655721031" class="icon" viewBox="0 0 1024 1024" version="1.1" xmlns="http://www.w3.org/2000/svg" p-id="7533" width="48" height="48">
  <path
    d="
      M512 981.333333
      a130.56 130.56 0 0 1-64-17.066666
      l-298.666667-170.666667
      A128 128 0 0 1 85.333333 682.666667
      V341.333333
      a128 128 0 0 1 64-110.933333
      l298.666667-170.666667
      a128 128 0 0 1 128 0
      l298.666667 170.666667
      A128 128 0 0 1 938.666667 341.333333
      v341.333334
      a128 128 0 0 1-64 110.933333
      l-298.666667 170.666667
      a130.56 130.56 0 0 1-64 17.066666
      z
      
      m0-853.333333
      a42.666667 42.666667 0 0 0-21.333333 5.973333
      l-298.666667 170.666667
      A42.666667 42.666667 0 0 0 170.666667 341.333333
      v341.333334
      a42.666667 42.666667 0 0 0 21.333333 36.693333
      l298.666667 170.666667
      a42.666667 42.666667 0 0 0 42.666666 0
      l298.666667-170.666667
      A42.666667 42.666667 0 0 0 853.333333 682.666667
      V341.333333
      a42.666667 42.666667 0 0 0-21.333333-36.693333
      l-298.666667-170.666667
      A42.666667 42.666667 0 0 0 512 128
      z
      
      m384 554.666667
      z
    "
    p-id="7534"
  ></path>

  <path
    d="
      M512 554.666667
      a46.506667 46.506667 0 0 1-21.333333-5.546667
      L118.186667 334.08
      a42.666667 42.666667 0 1 1 42.666666-74.24
      L512 462.933333
      l351.146667-203.093333
      a42.666667 42.666667 0 0 1 42.666666 74.24
      l-372.48 215.466667
      a46.506667 46.506667 0 0 1-21.333333 5.12
      z
    "
    p-id="7535"
  ></path>

  <path
    d="
      M512 984.746667
      a42.666667 42.666667 0 0 1-42.666667-42.666667
      V512
      a42.666667 42.666667 0 0 1 85.333334 0
      v430.08
      a42.666667 42.666667 0 0 1-42.666667 42.666667
      z
    "
    p-id="7536"
  ></path>
</svg>