<svg t="1759656011492" class="icon" viewBox="0 0 1024 1024" version="1.1" xmlns="http://www.w3.org/2000/svg" p-id="41940" width="48" height="48">
  <path
    d="
      M320 554.666667
      a64 64 0 1 0 0-128
      a64 64 0 0 0 0 128
      z
      
      M597.333333 490.666667
      a64 64 0 1 1-128 0
      a64 64 0 0 1 128 0
      z
      
      M746.666667 554.666667
      a64 64 0 1 0 0-128
      a64 64 0 0 0 0 128
      z
    "
    fill="#555B61"
    p-id="41941"
  ></path>

  <path
    d="
      M533.333333 938.666667
      C780.757333 938.666667 981.333333 738.090667 981.333333 490.666667
      S780.757333 42.666667 533.333333 42.666667
      S85.333333 243.242667 85.333333 490.666667
      V810.666667
      a128 128 0 0 0 128 128
      h320
      z
      
      M896 490.666667
      a362.666667 362.666667 0 0 1-362.666667 362.666666
      H213.333333
      a42.666667 42.666667 0 0 1-42.666666-42.666666
      v-320
      a362.666667 362.666667 0 0 1 725.333333 0
      z
    "
    fill="#555B61"
    p-id="41942"
  ></path>
</svg>