<svg t="1759653450701" class="icon" viewBox="0 0 1024 1024" version="1.1" xmlns="http://www.w3.org/2000/svg" p-id="1012"
  width="48" height="48">
  <path
    d="M384 320a32 32 0 0 1 32-32h416a160 160 0 0 1 160 160v224a32 32 0 0 1-64 0V448a96 96 0 0 0-96-96h-384v320a32 32 0 0 1-64 0V320zM64 160a32 32 0 0 1 32 32v640a32 32 0 0 1-64 0v-640a32 32 0 0 1 32-32z"
    fill="#000000" p-id="1013"></path>
  <path
    d="M32 672A32 32 0 0 1 64 640h896a32 32 0 0 1 32 32v160a32 32 0 0 1-64 0v-128H64a32 32 0 0 1-32-32zM32 320a32 32 0 0 1 32-32h352a32 32 0 0 1 0 64H64a32 32 0 0 1-32-32z"
    fill="#000000" p-id="1014"></path>
</svg>