<svg t="1759655557209" class="icon" viewBox="0 0 1024 1024" version="1.1" xmlns="http://www.w3.org/2000/svg" p-id="1045" width="48" height="48">
  <path
    d="
      M852.551 162
      c61 0 110.449 49.414 110.449 110.368
      v478.264
      C963 811.586 913.55 861 852.551 861
      H171.449
      C110.449 861 61 811.586 61 750.632
      V272.368
      C61 211.414 110.45 162 171.449 162
      z
      
      m47.444 235.411
      l-0.706 0.008
      H120.826
      v353.213
      c0 27.658 22.214 50.132 49.786 50.578
      l0.837 0.007
      h681.102
      c27.958 0 50.622-22.648 50.622-50.585
      l0.001-353.462
      a30.16 30.16 0 0 1-3.179 0.241
      z
      
      m-86.561 171.573
      c16.52 0 29.913 13.382 29.913 29.891
      c0 16.273-13.013 29.508-29.207 29.883
      l-0.706 0.008
      H647.76
      c-16.52 0-29.913-13.382-29.913-29.891
      c0-16.273 13.013-29.508 29.207-29.883
      l0.706-0.008
      h165.674
      z
      
      m39.117-347.201
      H171.449
      c-27.958 0-50.622 22.648-50.622 50.585
      l-0.001 65.268
      h778.463
      c1.317 0 2.613 0.086 3.885 0.25
      v-65.518
      c0-27.937-22.665-50.585-50.623-50.585
      z
    "
    fill="#333333"
    p-id="1046"
  ></path>
</svg>