<svg xmlns="http://www.w3.org/2000/svg" xmlns:xlink="http://www.w3.org/1999/xlink" width="20" height="20" viewBox="0 0 20 20" fill="none">
<path d="M17.44 6.87669L17.44 15.9967C17.44 16.6997 16.873 17.2767 16.17 17.2767L3.86 17.2867C3.15689 17.2867 2.59 16.7097 2.59 16.0067L2.59 6.89669C2.59 6.19376 3.15689 5.61669 3.86 5.61669L16.17 5.60669C16.873 5.60669 17.44 6.17374 17.44 6.87669ZM16.1648 16.0023L3.8648 16.0123L3.8648 6.89229L16.1648 6.89229L16.1648 16.0023Z" fill-rule="evenodd"  fill="#FFFFFF" >
</path>
<path d="M13.0783 5.62003L6.95829 5.62003L6.95829 4.03003L13.0683 4.03003L13.0783 5.62003ZM9.3229 14.6351L9.3229 12.1251L6.8229 12.1251L6.8229 10.7551L9.3229 10.7551L9.3229 8.25513L10.6829 8.25513L10.6829 10.7551L13.2129 10.7551L13.2129 12.1251L10.6829 12.1251L10.6829 14.6351L9.3229 14.6351Z" fill-rule="evenodd"  fill="#FFFFFF" >
</path>
</svg>
