<svg xmlns="http://www.w3.org/2000/svg" xmlns:xlink="http://www.w3.org/1999/xlink" width="20" height="20" viewBox="0 0 20 20" fill="none">
<path d="M13.9227 1.31641C14.2938 1.31641 14.5927 1.61531 14.5927 1.98641L14.5927 6.03641C14.5927 6.22781 14.5097 6.39336 14.3827 6.51641C14.3222 7.65312 13.8533 8.71586 13.0427 9.52641C12.8689 9.69828 12.6861 9.85578 12.4927 9.99641C14.2388 10.0218 15.6527 11.4545 15.6527 13.2064L15.6527 18.0064C15.6527 18.3775 15.3438 18.6764 14.9727 18.6764L4.97273 18.6764C4.60164 18.6764 4.30273 18.3775 4.30273 18.0064L4.30273 13.2064C4.30273 11.5716 5.53266 10.2137 7.11273 10.0164C6.9057 9.86992 6.70438 9.70805 6.52273 9.52641C5.71219 8.71586 5.24328 7.65312 5.18273 6.51641C5.05578 6.39336 4.98273 6.22781 4.98273 6.03641L4.98273 1.98641C4.98273 1.61531 5.28164 1.31641 5.65273 1.31641L13.9227 1.31641ZM13.7074 5.82531L5.85743 5.82531L5.85743 2.19531L13.7074 2.19531L13.7074 5.82531ZM9.50093 2.43751L10.0809 2.43751L10.0809 3.71751L11.3609 3.71751L11.3609 4.30751L10.0809 4.30751L10.0809 5.58751L9.50093 5.58751L9.50093 4.30751L8.21093 4.30751L8.21093 3.71751L9.50093 3.71751L9.50093 2.43751ZM13.484 6.70701C13.2653 8.55466 11.6903 9.99701 9.78403 9.99701C7.87778 9.99701 6.30278 8.55662 6.08403 6.70701L13.484 6.70701ZM5.86363 11.555C5.42223 11.9964 5.18363 12.5859 5.18363 13.205L5.18363 17.805L14.7736 17.805L14.7736 13.205C14.7736 12.5859 14.535 11.9964 14.0936 11.555C13.7206 11.1839 13.2434 10.9595 12.7336 10.895C12.8879 11.522 13.0815 12.5375 12.9936 13.475C13.3022 13.5805 13.4943 13.7668 13.6036 13.925C14.0118 14.5188 13.791 15.3432 13.7636 15.435L12.9136 15.435C12.9605 15.2729 13.0586 14.275 12.5136 14.275C11.9257 14.275 11.9802 15.2436 12.0036 15.435L11.1236 15.435C11.11 15.3295 10.9963 14.3177 11.5236 13.765C11.6467 13.6361 11.8363 13.4914 12.1136 13.425C12.2113 12.4895 11.9562 11.3945 11.8136 10.875L7.81363 10.875C7.62809 11.3184 7.27481 12.3298 7.32363 13.445C7.78067 13.5856 8.11363 14.0031 8.11363 14.505C8.11363 15.1202 7.60887 15.625 6.99363 15.625C6.3784 15.625 5.88363 15.1202 5.88363 14.505C5.88363 14.089 6.10379 13.7264 6.44363 13.535C6.38699 12.5135 6.62074 11.5863 6.83363 10.975C6.47231 11.0844 6.13902 11.2796 5.86363 11.555ZM6.99583 14.2695C6.86497 14.2695 6.75583 14.3786 6.75583 14.5095C6.75583 14.6404 6.86497 14.7495 6.99583 14.7495C7.12669 14.7495 7.23583 14.6404 7.23583 14.5095C7.23583 14.3786 7.12669 14.2695 6.99583 14.2695Z" fill-rule="evenodd"  fill="#FFFFFF" >
</path>
</svg>
