<svg xmlns="http://www.w3.org/2000/svg" xmlns:xlink="http://www.w3.org/1999/xlink" width="20" height="20" viewBox="0 0 20 20" fill="none">
<path d="M10 20C4.476 20 0 15.524 0 10C0 4.476 4.476 0 10 0C15.524 0 20 4.476 20 10C20 15.524 15.524 20 10 20ZM6.58 18.11C5.532 17.666 4.588 17.032 3.78 16.22C2.972 15.412 2.334 14.468 1.89 13.42C1.43 12.336 1.2 11.188 1.2 10C1.2 8.812 1.43 7.664 1.89 6.58C2.334 5.532 2.968 4.588 3.78 3.78C4.588 2.972 5.532 2.334 6.58 1.89C7.664 1.43 8.812 1.2 10 1.2C11.188 1.2 12.336 1.43 13.42 1.89C14.468 2.334 15.412 2.968 16.22 3.78C17.028 4.592 17.666 5.532 18.11 6.58C18.57 7.664 18.8 8.812 18.8 10C18.8 11.188 18.57 12.336 18.11 13.42C17.666 14.468 17.028 15.408 16.22 16.22C15.412 17.028 14.478 17.666 13.43 18.11C12.342 18.566 11.188 18.8 10 18.8C8.812 18.8 7.664 18.57 6.58 18.11Z" fill-rule="evenodd"  fill="#FFFFFF" >
</path>
<path d="M10.6 10.8399L10.6 8.43988L14.44 8.43988C14.772 8.43988 15.04 8.17188 15.04 7.83988C15.04 7.50788 14.772 7.23988 14.44 7.23988L12.608 7.23988L13.628 5.47188C13.792 5.18388 13.696 4.81988 13.408 4.65188C13.12 4.48788 12.756 4.58388 12.588 4.87188L11.224 7.23988L8.78 7.23988L7.412 4.87188C7.248 4.58388 6.88 4.48788 6.592 4.65188C6.304 4.81588 6.208 5.18388 6.372 5.47188L7.392 7.23988L5.64 7.23988C5.308 7.23988 5.04 7.50788 5.04 7.83988C5.04 8.17188 5.308 8.43988 5.64 8.43988L9.4 8.43988L9.4 10.8399L5.04 10.8399C4.708 10.8399 4.44 11.1079 4.44 11.4399C4.44 11.7719 4.708 12.0399 5.04 12.0399L9.4 12.0399L9.4 15.8999C9.4 16.2319 9.668 16.4999 10 16.4999C10.332 16.4999 10.6 16.2319 10.6 15.8999L10.6 12.0399L15.04 12.0399C15.372 12.0399 15.64 11.7719 15.64 11.4399C15.64 11.1079 15.372 10.8399 15.04 10.8399L10.6 10.8399Z"   fill="#FFFFFF" >
</path>
</svg>
