<svg xmlns="http://www.w3.org/2000/svg" xmlns:xlink="http://www.w3.org/1999/xlink" width="20" height="20" viewBox="0 0 20 20" fill="none">
<path d="M10.8933 1.8864L17.2133 7.4864C17.4992 7.73944 17.6633 8.10459 17.6633 8.4864L17.6633 17.3364C17.6633 18.0728 17.0697 18.6664 16.3333 18.6664L3.66333 18.6664C2.92695 18.6664 2.33333 18.0728 2.33333 17.3364L2.33333 8.4864C2.33333 8.10374 2.49636 7.73952 2.78333 7.4864L9.13333 1.8864C9.63799 1.44135 10.3895 1.4404 10.8933 1.8864ZM16.3366 17.3294L3.66663 17.3294L3.66663 8.4894L10.0066 2.8894L16.3366 8.4894L16.3366 17.3294Z" fill-rule="evenodd"  fill="#FFFFFF" >
</path>
<path d="M10.6667 11.6667L10.6667 16L9.33333 16L9.33333 11.6667C9.33333 11.4285 9.4604 11.2084 9.66667 11.0893C9.87293 10.9702 10.1271 10.9702 10.3333 11.0893C10.5396 11.2084 10.6667 11.4285 10.6667 11.6667Z"   fill="#FFFFFF" >
</path>
</svg>
