<svg xmlns="http://www.w3.org/2000/svg" xmlns:xlink="http://www.w3.org/1999/xlink" width="20" height="20" viewBox="0 0 20 20" fill="none">
<path d="M16.9987 3.02344C16.0338 2.05664 14.7539 1.52344 13.3887 1.52344L13.3787 1.52344C12.7048 1.52344 12.0517 1.65562 11.4287 1.91344C10.8056 2.17125 10.2452 2.54688 9.76867 3.02344L3.09867 9.69344C2.38187 10.4102 1.89593 11.3193 1.69867 12.3134C1.5014 13.3076 1.6 14.3259 1.98867 15.2634C2.37734 16.2009 3.02492 16.999 3.86867 17.5634C4.71242 18.1259 5.695 18.4234 6.70867 18.4234L6.70867 18.4134L6.71867 18.4134C7.3925 18.4134 8.04562 18.2913 8.66867 18.0334C9.29171 17.7756 9.8521 17.4 10.3287 16.9234L16.9987 10.2534C17.4752 9.77687 17.8509 9.21648 18.1087 8.59344C18.3665 7.97039 18.4987 7.30727 18.4987 6.63344C18.4987 5.95766 18.3665 5.30648 18.1087 4.68344C17.8509 4.06039 17.4752 3.5 16.9987 3.02344ZM13.3914 2.63474C13.9168 2.63474 14.435 2.73357 14.9214 2.93474C15.4077 3.13786 15.8403 3.43169 16.2114 3.80474C16.9672 4.55864 17.3814 5.56638 17.3814 6.63474C17.3814 7.16208 17.2825 7.67646 17.0814 8.16474C16.8782 8.65302 16.5864 9.09169 16.2114 9.46474L13.2714 12.4047L7.61137 6.75474L10.5614 3.80474C11.3172 3.04888 12.313 2.63474 13.3814 2.63474L13.3914 2.63474ZM3.87897 16.1351C4.25006 16.5082 4.68264 16.802 5.16897 17.0051C5.6553 17.2063 6.17358 17.3051 6.69897 17.3051L6.70897 17.3051C7.77733 17.3051 8.78506 16.891 9.53897 16.1351L12.479 13.1951L6.82897 7.53514L3.87897 10.4751C3.50397 10.8482 3.21209 11.2869 3.00897 11.7751C2.8078 12.2634 2.70897 12.7778 2.70897 13.3051C2.70897 14.3735 3.12311 15.3793 3.87897 16.1351Z" fill-rule="evenodd"  fill="#FFFFFF" >
</path>
</svg>
