<svg xmlns="http://www.w3.org/2000/svg" xmlns:xlink="http://www.w3.org/1999/xlink" width="20" height="20" viewBox="0 0 20 20" fill="none">
<path d="M2.1875 17.655C2.1875 16.1275 4.23125 15.0175 7.1875 14.575L7.1875 13.805C6.08125 12.9156 5.14437 11.6344 4.5975 10.205C4.13 9.82625 3.80312 9.20312 3.5375 8.295C3.2875 7.4425 3.53625 6.70813 4.1275 6.215C4.5225 2.74062 6.76813 0.625 10.0475 0.625C13.2819 0.625 15.4556 2.69313 15.8675 6.125C16.4425 6.61062 16.6975 7.3675 16.4875 8.265C16.2275 9.37375 15.8869 10.0706 15.3375 10.405C14.7819 11.7844 13.8687 13.0075 12.8075 13.855L12.8175 14.575C15.7738 15.0175 17.8175 16.1275 17.8175 17.655C17.8175 18.9638 14.76 19.375 9.9975 19.375C5.235 19.375 2.1875 18.9638 2.1875 17.655ZM14.2525 9.735C13.7531 11.0919 12.855 12.2975 11.8225 13.045C11.6603 13.1626 11.5625 13.3446 11.5625 13.545L11.5625 15.125C11.5625 15.4419 11.7978 15.7079 12.1125 15.745C14.5556 16.0325 16.2719 16.8056 16.5325 17.475C16.4875 17.4956 16.4269 17.5231 16.3625 17.545C16.0269 17.6625 15.5188 17.7656 14.8625 17.855C13.5831 18.0287 11.8294 18.125 10.0025 18.125C8.17562 18.125 6.42188 18.0287 5.1425 17.855C4.48625 17.7656 3.96812 17.6625 3.6325 17.545C3.56875 17.5231 3.5175 17.4956 3.4725 17.475C3.73312 16.8056 5.43875 16.0325 7.8825 15.745C8.19718 15.7079 8.4425 15.4419 8.4425 15.125L8.4425 13.495C8.4425 13.2961 8.34282 13.1128 8.1825 12.995C7.11812 12.2144 6.2025 10.9819 5.7125 9.605C5.66549 9.47256 5.57147 9.35982 5.4525 9.285C5.19938 9.12625 4.955 8.70437 4.7325 7.945C4.61438 7.54125 4.73187 7.285 5.0525 7.085C5.22082 6.98075 5.32604 6.8123 5.3425 6.615C5.59125 3.6 7.3425 1.875 10.0425 1.875C12.6969 1.875 14.3856 3.53688 14.6525 6.515C14.6703 6.71267 14.7828 6.892 14.9525 6.995C15.2562 7.17938 15.3881 7.49375 15.2725 7.985C15.06 8.89313 14.8331 9.29938 14.6425 9.365C14.4652 9.42626 14.3173 9.55893 14.2525 9.735Z" fill-rule="evenodd"  fill="#FFFFFF" >
</path>
</svg>
