<svg xmlns="http://www.w3.org/2000/svg" xmlns:xlink="http://www.w3.org/1999/xlink" width="19" height="20" viewBox="0 0 19 20" fill="none">
<path d="M1.19307 6.19992L1.19307 15.3499C1.19307 16.555 2.12639 17.5299 3.27307 17.5299L15.7431 17.5299C16.8879 17.5299 17.8231 16.555 17.8231 15.3499L17.8231 6.19992C17.8231 4.99289 16.8879 4.00992 15.7431 4.00992L13.2831 4.00992L13.2831 3.01992C13.2831 2.68984 13.0248 2.41992 12.7131 2.41992C12.4013 2.41992 12.1531 2.6918 12.1531 3.01992L12.1531 4.00992L6.86307 4.00992L6.86307 3.01992C6.86307 2.68984 6.60478 2.41992 6.29307 2.41992C5.97949 2.41992 5.72307 2.6918 5.72307 3.01992L5.72307 4.00992L3.27307 4.00992C2.12639 4.00992 1.19307 4.99289 1.19307 6.19992ZM13.2768 5.20312L13.2768 5.80312C13.2768 6.13125 13.0285 6.39312 12.7168 6.39312C12.405 6.39312 12.1468 6.1332 12.1468 5.80312L12.1468 5.20312L6.85677 5.20312L6.85677 5.80312C6.85677 6.13125 6.61034 6.39312 6.29677 6.39312C5.98505 6.39312 5.72677 6.1332 5.72677 5.80312L5.72677 5.20312L3.26677 5.20312C2.74538 5.20312 2.32677 5.64429 2.32677 6.19312L2.32677 15.3431C2.32677 15.892 2.74538 16.3431 3.26677 16.3431L15.7368 16.3431C16.2582 16.3431 16.6868 15.892 16.6868 15.3431L16.6868 6.19312C16.6868 5.64429 16.2582 5.20312 15.7368 5.20312L13.2768 5.20312ZM5.91937 9.17972C5.60579 9.17972 5.34937 9.4516 5.34937 9.77972C5.34937 10.1098 5.60765 10.3697 5.91937 10.3697L13.0894 10.3697C13.4029 10.3697 13.6594 10.1078 13.6594 9.77972C13.6594 9.4516 13.4029 9.17972 13.0894 9.17972L5.91937 9.17972ZM5.91937 12.3613C5.60579 12.3613 5.34937 12.6332 5.34937 12.9613C5.34937 13.2914 5.60765 13.5513 5.91937 13.5513L9.31937 13.5513C9.63294 13.5513 9.87937 13.2894 9.87937 12.9613C9.87937 12.6332 9.63294 12.3613 9.31937 12.3613L5.91937 12.3613Z" fill-rule="evenodd"  fill="#FFFFFF" >
</path>
</svg>
