<svg xmlns="http://www.w3.org/2000/svg" xmlns:xlink="http://www.w3.org/1999/xlink" width="12.353515625" height="8.353515625" viewBox="0 0 12.353515625 8.353515625" fill="none">
<path d="M11.8535 0L8.3535 0L8.3535 1L10.6464 1L7.3535 4.29289L5.70705 2.64645C5.60862 2.55075 5.49077 2.50193 5.3535 2.5C5.21623 2.50193 5.09838 2.55075 4.99995 2.64645L-5.3376e-05 7.64645L0.707053 8.35355L5.3535 3.70711L6.99995 5.35355C7.09838 5.44925 7.21623 5.49807 7.3535 5.5C7.49077 5.49807 7.60862 5.44925 7.70705 5.35355L11.3535 1.70711L11.3535 4L12.3535 4L12.3535 0.5C12.3516 0.362729 12.3028 0.244878 12.2071 0.146447Q12.0594 0.00289714 11.8535 0Z" fill-rule="evenodd"  fill="#FF5733" >
</path>
</svg>
