<svg xmlns="http://www.w3.org/2000/svg" xmlns:xlink="http://www.w3.org/1999/xlink" width="12.353515625" height="8.353515625" viewBox="0 0 12.353515625 8.353515625" fill="none">
<path d="M5.3535 4.64639L0.707053 -5.3376e-05L-5.3376e-05 0.707053L4.99995 5.70705C5.09838 5.80275 5.21623 5.85157 5.3535 5.8535C5.49077 5.85157 5.60862 5.80275 5.70705 5.70705L7.3535 4.06061L10.6464 7.3535L8.3535 7.3535L8.3535 8.3535L11.8535 8.3535C11.9908 8.35157 12.1086 8.30275 12.2071 8.20705C12.3028 8.10862 12.3516 7.99077 12.3535 7.8535L12.3535 4.3535L11.3535 4.3535L11.3535 6.64639L7.70705 2.99995C7.60862 2.90425 7.49077 2.85543 7.3535 2.8535C7.21623 2.85543 7.09838 2.90425 6.99995 2.99995L5.3535 4.64639Z" fill-rule="evenodd"  fill="#43CF7C" >
</path>
</svg>
